<svg xmlns="http://www.w3.org/2000/svg" xmlns:xlink="http://www.w3.org/1999/xlink" xmlns:lucid="lucid" width="1658.28" height="1863"><g transform="translate(-603.2239607048855 401.5)" lucid:page-tab-id="0_0"><path d="M500-500h2000v2000H500z" fill="#fff"/><path d="M960-394a6 6 0 0 1 6-6h1028a6 6 0 0 1 6 6v1848a6 6 0 0 1-6 6H966a6 6 0 0 1-6-6z" stroke="#3a414a" stroke-width="3" fill-opacity="0"/><use xlink:href="#a" transform="matrix(1,0,0,1,968,-392) translate(383.63628472222223 27.98611111111111)"/><use xlink:href="#b" transform="matrix(1,0,0,1,968,-392) translate(534.0052083333334 27.98611111111111)"/><path d="M629.72 415.25V415a25 25 0 0 1 25-25 25 25 0 0 1 25 25 25 25 0 0 1-25 25 25 25 0 0 1-25-25v-.25" stroke="#3a414a" stroke-width="3" fill="#fff"/><path d="M604.72 396a6 6 0 0 1 6-6h88a6 6 0 0 1 6 6v197.08a6 6 0 0 1-6 6h-88a6 6 0 0 1-6-6z" fill="none"/><path d="M654.72 440v75.45l50 83.63m-50-83.63l-50 83.63m0-134.08h100" stroke="#3a414a" stroke-width="3" fill="none"/><use xlink:href="#c" transform="matrix(1,0,0,1,524.7239607048855,599.075) translate(97.44791666666666 21.52777777777778)"/><path d="M2185 565.25V565a25 25 0 0 1 25-25 25 25 0 0 1 25 25 25 25 0 0 1-25 25 25 25 0 0 1-25-25v-.25" stroke="#3a414a" stroke-width="3" fill="#fff"/><path d="M2160 546a6 6 0 0 1 6-6h88a6 6 0 0 1 6 6v197.08a6 6 0 0 1-6 6h-88a6 6 0 0 1-6-6z" fill="none"/><path d="M2210 590v75.45l50 83.63m-50-83.63l-50 83.63m0-134.08h100" stroke="#3a414a" stroke-width="3" fill="none"/><use xlink:href="#d" transform="matrix(1,0,0,1,2080,749.075) translate(96.54188368055556 21.52777777777778)"/><path d="M1282.13-260c0 33.14-48.5 60-108.33 60s-108.33-26.86-108.33-60 48.5-60 108.33-60 108.34 26.86 108.34 60z" stroke="#3a414a" stroke-width="3" fill="#fff"/><use xlink:href="#e" transform="matrix(1,0,0,1,1065.4687500000002,-320) translate(26.21333333333333 67.93402777777777)"/><use xlink:href="#f" transform="matrix(1,0,0,1,1065.4687500000002,-320) translate(118.50934027777778 67.93402777777777)"/><use xlink:href="#g" transform="matrix(1,0,0,1,1065.4687500000002,-320) translate(132.76715277777777 67.93402777777777)"/><path d="M1283.44-110c0 33.66-50.02 60.94-111.72 60.94-61.7 0-111.72-27.28-111.72-60.94s50.02-60.94 111.72-60.94c61.7 0 111.72 27.28 111.72 60.94z" stroke="#3a414a" stroke-width="3" fill="#fff"/><use xlink:href="#h" transform="matrix(1,0,0,1,1060,-170.9375) translate(43.569670138888895 52.02777777777778)"/><use xlink:href="#i" transform="matrix(1,0,0,1,1060,-170.9375) translate(86.62522569444445 52.02777777777778)"/><use xlink:href="#j" transform="matrix(1,0,0,1,1060,-170.9375) translate(20.425138888888906 78.91579861111111)"/><use xlink:href="#k" transform="matrix(1,0,0,1,1060,-170.9375) translate(85.39909722222222 105.80381944444446)"/><use xlink:href="#l" transform="matrix(1,0,0,1,1060,-170.9375) translate(117.31098958333334 105.80381944444446)"/><path d="M1287.16 40c0 33.14-50.02 60-111.72 60-61.7 0-111.72-26.86-111.72-60s50.02-60 111.72-60c61.7 0 111.72 26.86 111.72 60z" stroke="#3a414a" stroke-width="3" fill="#fff"/><use xlink:href="#m" transform="matrix(1,0,0,1,1063.7239583333333,-20) translate(56.38889756944444 54.80902777777778)"/><use xlink:href="#n" transform="matrix(1,0,0,1,1063.7239583333333,-20) translate(122.100703125 54.80902777777778)"/><use xlink:href="#o" transform="matrix(1,0,0,1,1063.7239583333333,-20) translate(58.73264756944445 81.69704861111111)"/><path d="M1290.88 189.06c0 33.14-51.68 60-115.44 60S1060 222.2 1060 189.06c0-33.13 51.68-60 115.44-60s115.44 26.87 115.44 60z" stroke="#3a414a" stroke-width="3" fill="#fff"/><use xlink:href="#p" transform="matrix(1,0,0,1,1060,129.0625) translate(57.26389756944444 54.80902777777778)"/><use xlink:href="#f" transform="matrix(1,0,0,1,1060,129.0625) translate(114.967890625 54.80902777777778)"/><use xlink:href="#n" transform="matrix(1,0,0,1,1060,129.0625) translate(129.225703125 54.80902777777778)"/><use xlink:href="#q" transform="matrix(1,0,0,1,1060,129.0625) translate(56.99805555555557 81.69704861111111)"/><path d="M1292.97 460c0 33.14-51.32 60-114.62 60-63.3 0-114.63-26.86-114.63-60s51.32-60 114.63-60c63.3 0 114.62 26.86 114.62 60z" stroke="#3a414a" stroke-width="3" fill="#fff"/><use xlink:href="#r" transform="matrix(1,0,0,1,1063.7239583333333,400) translate(64.01671875 54.80902777777778)"/><use xlink:href="#s" transform="matrix(1,0,0,1,1063.7239583333333,400) translate(61.86285590277778 81.69704861111111)"/><path d="M1280.68 600c0 33.14-47.12 60-105.24 60s-105.23-26.86-105.23-60 47.12-60 105.24-60 105.24 26.86 105.24 60z" stroke="#3a414a" stroke-width="3" fill="#fff"/><use xlink:href="#t" transform="matrix(1,0,0,1,1070.2083333333333,540) translate(79.27800347222222 54.80902777777778)"/><use xlink:href="#u" transform="matrix(1,0,0,1,1070.2083333333333,540) translate(37.643888888888895 81.69704861111111)"/><path d="M1280.68 880c0 33.14-47.12 60-105.24 60s-105.23-26.86-105.23-60 47.12-60 105.24-60 105.24 26.86 105.24 60z" stroke="#3a414a" stroke-width="3" fill="#fff"/><use xlink:href="#p" transform="matrix(1,0,0,1,1070.2083333333333,820) translate(46.76389756944444 54.80902777777778)"/><use xlink:href="#f" transform="matrix(1,0,0,1,1070.2083333333333,820) translate(104.467890625 54.80902777777778)"/><use xlink:href="#n" transform="matrix(1,0,0,1,1070.2083333333333,820) translate(118.725703125 54.80902777777778)"/><use xlink:href="#v" transform="matrix(1,0,0,1,1070.2083333333333,820) translate(63.41971354166667 81.69704861111111)"/><path d="M1280.68 1020c0 33.14-47.12 60-105.24 60s-105.23-26.86-105.23-60 47.12-60 105.24-60 105.24 26.86 105.24 60z" stroke="#3a414a" stroke-width="3" fill="#fff"/><use xlink:href="#w" transform="matrix(1,0,0,1,1070.2083333333333,960) translate(34.35612847222222 67.93402777777777)"/><use xlink:href="#x" transform="matrix(1,0,0,1,1070.2083333333333,960) translate(110.4954513888889 67.93402777777777)"/><path d="M1660 1305.24c0 33.14-40.3 60-90 60s-90-26.86-90-60 40.3-60 90-60 90 26.86 90 60z" stroke="#3a414a" stroke-width="3" fill="#fff"/><use xlink:href="#w" transform="matrix(1,0,0,1,1480,1245.2413028267233) translate(19.735902777777778 54.80902777777778)"/><use xlink:href="#y" transform="matrix(1,0,0,1,1480,1245.2413028267233) translate(95.87522569444445 54.80902777777778)"/><use xlink:href="#x" transform="matrix(1,0,0,1,1480,1245.2413028267233) translate(57.42578993055555 81.69704861111111)"/><path d="M1294.6 320c0 33.14-51.68 60-115.43 60-63.76 0-115.45-26.86-115.45-60s51.7-60 115.45-60 115.44 26.86 115.44 60z" stroke="#3a414a" stroke-width="3" fill="#fff"/><use xlink:href="#z" transform="matrix(1,0,0,1,1063.7239583333333,260) translate(47.92687500000001 54.80902777777778)"/><use xlink:href="#A" transform="matrix(1,0,0,1,1063.7239583333333,260) translate(97.44944444444445 54.80902777777778)"/><use xlink:href="#B" transform="matrix(1,0,0,1,1063.7239583333333,260) translate(71.71159722222222 81.69704861111111)"/><path d="M1280.68 1162.62c0 33.14-46.1 60-102.97 60-56.86 0-102.96-26.86-102.96-60s46.1-60 102.97-60c56.88 0 102.98 26.86 102.98 60z" stroke="#3a414a" stroke-width="3" fill="#fff"/><use xlink:href="#C" transform="matrix(1,0,0,1,1074.7395833333333,1102.6206514133617) translate(60.63303819444445 54.80902777777778)"/><use xlink:href="#D" transform="matrix(1,0,0,1,1074.7395833333333,1102.6206514133617) translate(36.886293402777795 81.69704861111111)"/><path d="M1288.13 1320c0 33.14-48.8 60-108.96 60-60.18 0-108.96-26.86-108.96-60s48.8-60 108.97-60 108.95 26.86 108.95 60z" stroke="#3a414a" stroke-width="3" fill="#fff"/><use xlink:href="#E" transform="matrix(1,0,0,1,1070.2083333333333,1260) translate(46.99328125000001 54.80902777777778)"/><use xlink:href="#F" transform="matrix(1,0,0,1,1070.2083333333333,1260) translate(149.71680555555557 54.80902777777778)"/><use xlink:href="#G" transform="matrix(1,0,0,1,1070.2083333333333,1260) translate(38.404956597222224 81.69704861111111)"/><use xlink:href="#H" transform="matrix(1,0,0,1,1070.2083333333333,1260) translate(109.7591232638889 81.69704861111111)"/><path d="M1680 360.94c0 33.65-44.77 60.94-100 60.94s-100-27.3-100-60.94c0-33.66 44.77-60.94 100-60.94s100 27.28 100 60.94z" stroke="#3a414a" stroke-width="3" fill="#fff"/><use xlink:href="#I" transform="matrix(1,0,0,1,1480,300) translate(69.02084201388888 41.54340277777778)"/><use xlink:href="#J" transform="matrix(1,0,0,1,1480,300) translate(47.362855902777774 68.43142361111111)"/><use xlink:href="#K" transform="matrix(1,0,0,1,1480,300) translate(39.9681076388889 95.31944444444446)"/><path d="M1670 655.54c0 33.13-40.3 60-90 60s-90-26.87-90-60c0-33.14 40.3-60 90-60s90 26.86 90 60z" stroke="#3a414a" stroke-width="3" fill="#fff"/><use xlink:href="#L" transform="matrix(1,0,0,1,1490,595.5375) translate(44.36155381944445 54.80902777777778)"/><use xlink:href="#M" transform="matrix(1,0,0,1,1490,595.5375) translate(98.28950520833334 54.80902777777778)"/><use xlink:href="#N" transform="matrix(1,0,0,1,1490,595.5375) translate(56.40039930555555 81.69704861111111)"/><path d="M1760 1042.62c0 33.14-40.3 60-90 60s-90-26.86-90-60 40.3-60 90-60 90 26.86 90 60z" stroke="#3a414a" stroke-width="3" fill="#fff"/><use xlink:href="#O" transform="matrix(1,0,0,1,1580,982.6206514133617) translate(55.06033854166667 52.46527777777778)"/><use xlink:href="#P" transform="matrix(1,0,0,1,1580,982.6206514133617) translate(17.723098958333335 79.35329861111111)"/><use xlink:href="#x" transform="matrix(1,0,0,1,1580,982.6206514133617) translate(97.12848090277778 79.35329861111111)"/><path d="M1571.47 1242.24h-2.94v-14.76h2.94zm0-29.5h-2.94v-29.53h2.94zm0-44.28h-2.94v-29.52h2.94zm-6.3-66.42l1.14.28 1.1.45 1 .6.9.77.75.9.6 1 .46 1.08.3 1.14.07 1.1v14.83h-2.94v-14.7l-.07-.78-.16-.7-.27-.64-.37-.6-.46-.55-.54-.46-.6-.37-.66-.27-.7-.17-.76-.06h-14.55v-2.95h14.66zm-161.92 2.87h-29.23v-2.95h29.23zm-43.84 0h-29.22v-2.95h29.23zm-43.83 0h-29.23v-2.95h29.23zm-62.98-7.53l.05.77.16.7.3.64.36.6.46.55.54.46.6.36.66.27.7.16.75.05h14.56v2.95h-14.67l-1.12-.08-1.14-.28-1.08-.45-1-.62-.9-.76-.76-.9-.6-1-.46-1.08-.27-1.14-.1-1.1v-22.74h2.96zm282.17 7.54h-19.93v-2.95h19.93z" stroke="#3a414a" stroke-width=".05" fill="#3a414a"/><path d="M1571.47 1243.78l-1.45-.04h-1.5v-1.54h2.95z" fill="#3a414a"/><path stroke="#3a414a" stroke-width=".05" fill="#3a414a"/><path d="M1262.4 1083l-2.56 1.5-7.25-12.57v3h-2.96v-3l-7.25 12.56-2.56-1.5 11.27-19.52z" stroke="#3a414a" stroke-width=".05" fill="#3a414a"/><use xlink:href="#Q" transform="matrix(1,0,0,1,1406.5803634755543,1092.6748692200906) translate(0.005000000000002558 17.22222222222222)"/><path d="M1914.74 1300c0 33.14-40.3 60-90 60s-90-26.86-90-60 40.3-60 90-60 90 26.86 90 60z" stroke="#3a414a" stroke-width="3" fill="#fff"/><use xlink:href="#R" transform="matrix(1,0,0,1,1734.7395833333333,1240) translate(26.002178819444435 54.80902777777778)"/><use xlink:href="#S" transform="matrix(1,0,0,1,1734.7395833333333,1240) translate(88.90365451388888 54.80902777777778)"/><use xlink:href="#T" transform="matrix(1,0,0,1,1734.7395833333333,1240) translate(44.111987847222224 81.69704861111111)"/><use xlink:href="#x" transform="matrix(1,0,0,1,1734.7395833333333,1240) translate(70.73959201388888 81.69704861111111)"/><path d="M1920 780c0 33.14-42.65 60-95.26 60-52.6 0-95.26-26.86-95.26-60s42.65-60 95.26-60c52.6 0 95.26 26.86 95.26 60z" stroke="#3a414a" stroke-width="3" fill="#fff"/><use xlink:href="#U" transform="matrix(1,0,0,1,1729.4791666666665,720) translate(47.268237847222224 46.84027777777778)"/><use xlink:href="#V" transform="matrix(1,0,0,1,1729.4791666666665,720) translate(26.906909722222217 73.72829861111111)"/><use xlink:href="#W" transform="matrix(1,0,0,1,1729.4791666666665,720) translate(138.44119791666668 73.72829861111111)"/><use xlink:href="#l" transform="matrix(1,0,0,1,1729.4791666666665,720) translate(84.35504340277777 100.61631944444446)"/><path d="M1920 520c0 33.14-44.77 60-100 60s-100-26.86-100-60 44.77-60 100-60 100 26.86 100 60z" stroke="#3a414a" stroke-width="3" fill="#fff"/><use xlink:href="#X" transform="matrix(1,0,0,1,1720,460) translate(11.913637152777776 67.93402777777777)"/><use xlink:href="#Y" transform="matrix(1,0,0,1,1720,460) translate(18.163637152777774 67.93402777777777)"/><use xlink:href="#Z" transform="matrix(1,0,0,1,1720,460) translate(109.15756076388888 67.93402777777777)"/><path d="M1393.5 1048.25h-31.6v-2.95h31.6zm-47.38 0h-31.6v-2.95h31.6zm-47.4 0h-15.8v-2.95h15.8zm278.5-.13h-16.9v-2.95h16.9zm-33.8 0h-33.76v-2.95h33.77z" stroke="#3a414a" stroke-width=".05" fill="#3a414a"/><path d="M1578.6 1045.6l.24 2.34.02.18h-1.7v-2.95h1.43z" fill="#3a414a"/><path stroke="#3a414a" stroke-width=".05" fill="#3a414a"/><path d="M1292.66 1038.05l-12.55 7.25h3v2.95h-3l12.56 7.24-1.47 2.55-19.55-11.28 19.54-11.28z" stroke="#3a414a" stroke-width=".05" fill="#3a414a"/><use xlink:href="#Q" transform="matrix(1,0,0,1,1398.4212213103624,1035.8906663282742) translate(-1.355763230899349 17.22222222222222)"/><path d="M1826.2 1227.17h-2.93v-14.88h2.94zm0-29.76h-2.93v-29.75h2.94zm0-44.63h-2.93v-29.75h2.94zm0-54.6h-2.93v-19.8h2.94zm-6.3-56.94l1.15.28 1.1.46 1 .6.88.77.76.9.6 1 .45 1.08.28 1.15.08 1.1v14.95h-2.93v-14.82l-.07-.77-.16-.68-.27-.65-.37-.6-.46-.55-.54-.46-.6-.37-.66-.28-.7-.16-.76-.06h-18.52v-2.95h18.64zm-38.32 2.87H1763v-2.95h18.58z" stroke="#3a414a" stroke-width=".05" fill="#3a414a"/><path d="M1763.04 1044.1h-1.58l.04-1.46v-.68l-.04-.8h1.58z" fill="#3a414a"/><path stroke="#3a414a" stroke-width=".05" fill="#3a414a"/><path d="M1836.02 1218.92l-11.28 19.53-11.28-19.53 2.56-1.48 7.25 12.55v-3h2.94v3l7.26-12.56z" stroke="#3a414a" stroke-width=".05" fill="#3a414a"/><use xlink:href="#aa" transform="matrix(1,0,0,1,1768.59375,1098.1853257690777) translate(0.005000000000002558 17.22222222222222)"/><path d="M1298.58 1021.48h-15.1v-2.96h15.1zm45.25 0h-30.17v-2.96h30.17zm37.64-7.42l-.08 1.1-.3 1.15-.44 1.1-.6 1-.77.9-.9.75-1 .6-1.1.46-1.13.3-1.1.08h-15.15v-2.96h15.02l.77-.05.7-.17.65-.27.6-.37.55-.46.46-.54.37-.6.27-.66.16-.7.07-.76V996h2.94zm0-36.06h-2.94v-36h2.94zm18.62-76.52h-14.04l-.77.05-.7.17-.65.27-.6.37-.55.46-.46.54-.37.6-.27.66-.16.7-.07.76V924h-2.94v-18.06l.08-1.1.3-1.15.44-1.1.6-1 .77-.9.9-.75 1-.6 1.1-.46 1.13-.3 1.1-.08h14.16zm42.28 0h-28.2v-2.96h28.2zm169.13 0h-28.18v-2.96h28.2zm42.3 0h-28.2v-2.96h28.2zm35.65-7.42l-.08 1.1-.28 1.15-.46 1.1-.6 1-.77.9-.9.75-1 .6-1.08.46-1.15.3-1.1.08h-14.17v-2.96h14.04l.77-.05.68-.17.65-.27.6-.37.54-.46.47-.54.37-.6.28-.66.16-.7.06-.76V876h2.95zm-120.23 7.42h-8.1v-2.96h8.1zM1689.45 858h-2.95v-36h2.95zm27.2-76.52h-22.6l-.78.05-.7.17-.64.27-.6.37-.55.46-.46.54-.37.6-.27.66-.17.7-.05.76V804h-2.95v-18.06l.1-1.1.27-1.15.44-1.1.63-1 .76-.9.88-.75 1-.6 1.1-.46 1.13-.3 1.12-.08h22.73z" stroke="#3a414a" stroke-width=".05" fill="#3a414a"/><path d="M1283.53 1021.48h-1.4l.05-1.46v-.14l-.04-1.36h1.4z" fill="#3a414a"/><path stroke="#3a414a" stroke-width=".05" fill="#3a414a"/><path d="M1727.93 780l-19.53 11.28-1.48-2.56 12.55-7.25h-3v-2.95h3l-12.55-7.24 1.48-2.56z" stroke="#3a414a" stroke-width=".05" fill="#3a414a"/><use xlink:href="#aa" transform="matrix(1,0,0,1,1448.8397905949748,889.2447916666666) translate(0.005000000000002558 17.22222222222222)"/><path d="M1283.8 740c0 33.14-49.25 60-110 60s-110-26.86-110-60 49.25-60 110-60 110 26.86 110 60z" stroke="#3a414a" stroke-width="3" fill="#fff"/><use xlink:href="#h" transform="matrix(1,0,0,1,1063.8020833333335,680) translate(55.898012152777774 41.21527777777778)"/><use xlink:href="#ab" transform="matrix(1,0,0,1,1063.8020833333335,680) translate(98.95356770833334 41.21527777777778)"/><use xlink:href="#j" transform="matrix(1,0,0,1,1063.8020833333335,680) translate(18.425138888888902 68.10329861111111)"/><use xlink:href="#k" transform="matrix(1,0,0,1,1063.8020833333335,680) translate(83.39909722222222 94.99131944444446)"/><use xlink:href="#l" transform="matrix(1,0,0,1,1063.8020833333335,680) translate(115.31098958333334 94.99131944444446)"/><path d="M1310.06 461.48h-14.1v-2.96h14.1zm42.25 0h-28.16v-2.96h28.17zm35.66-7.42l-.1 1.1-.26 1.15-.45 1.1-.62 1-.76.9-.9.75-1 .6-1.07.46-1.15.3-1.1.08h-14.15v-2.96h14.03l.76-.06.68-.16.66-.27.6-.37.54-.46.46-.54.37-.6.28-.66.17-.7.06-.76v-6.9h2.96zm0-29.08H1385v-29.02h2.96zm16.97-62.57h-12.4l-.75.07-.7.17-.65.27-.6.38-.54.46-.47.54-.37.6-.28.66-.16.7-.06.75v14.45H1385v-14.57l.1-1.1.27-1.15.45-1.1.6-1 .77-.88.9-.76 1-.63 1.07-.45 1.14-.27 1.13-.1h12.5zm37.35 0h-24.9v-2.94h24.9zm24.9 0h-12.46v-2.94h12.45z" stroke="#3a414a" stroke-width=".05" fill="#3a414a"/><path d="M1296 461.48h-1.56l.03-1.46-.03-1.5h1.57z" fill="#3a414a"/><path stroke="#3a414a" stroke-width=".05" fill="#3a414a"/><path d="M1478.45 360.94l-19.53 11.27-1.48-2.54 12.55-7.25h-3v-2.94h3l-12.56-7.25 1.48-2.54z" stroke="#3a414a" stroke-width=".05" fill="#3a414a"/><use xlink:href="#aa" transform="matrix(1,0,0,1,1330.3385013766876,425.5323527545814) translate(0.005000000000002558 17.22222222222222)"/><path d="M1581.47 592.54h-2.94V579.4h2.94zm0-26.3h-2.94v-26.3h2.94zm0-39.47h-2.94v-7.3h2.94zm0-39.45h-2.94v-26.3h2.94zm0-39.46h-2.94V434.7h2.94z" stroke="#3a414a" stroke-width=".05" fill="#3a414a"/><path d="M1581.47 594.08l-1.45-.04h-1.5v-1.54h2.95z" fill="#3a414a"/><path stroke="#3a414a" stroke-width=".05" fill="#3a414a"/><path d="M1591.28 442.96l-2.56 1.47-7.25-12.55v3h-2.94v-3l-7.25 12.55-2.56-1.47 11.28-19.53z" stroke="#3a414a" stroke-width=".05" fill="#3a414a"/><g><use xlink:href="#Q" transform="matrix(1,0,0,1,1525.8680555555557,497.95106032903067) translate(0.005000000000002558 17.22222222222222)"/></g><path d="M703.3 462.16l352.85-706.5M703.33 462.12l-2.03 4.06" stroke="#3a414a" stroke-width="3" fill="none"/><path d="M1062.63-257.32l.9 14.98-13.4-6.7z" stroke="#3a414a" stroke-width="3" fill="#3a414a"/><path d="M703.45 462.24L864.72 210l184.72-305.04M703.47 462.2l-2.44 3.83" stroke="#3a414a" stroke-width="3" fill="none"/><path d="M1056.95-107.43l-.32 15-12.83-7.78z" stroke="#3a414a" stroke-width="3" fill="#3a414a"/><path d="M703.6 462.36l347.3-409.03M703.64 462.33l-2.94 3.46" stroke="#3a414a" stroke-width="3" fill="none"/><path d="M1060.28 42.3l-2.7 14.74-11.42-9.7z" stroke="#3a414a" stroke-width="3" fill="#3a414a"/><path d="M703.83 462.58l340.82-262.84M703.86 462.56l-3.6 2.77" stroke="#3a414a" stroke-width="3" fill="none"/><path d="M1056.12 190.9l-5.7 13.87-9.16-11.88z" stroke="#3a414a" stroke-width="3" fill="#3a414a"/><path d="M704.04 462.94l341.94-136.46M704.07 462.93l-4.2 1.68" stroke="#3a414a" stroke-width="3" fill="none"/><path d="M1059.44 321.1l-9.3 11.8-5.55-13.94z" stroke="#3a414a" stroke-width="3" fill="#3a414a"/><path d="M705.38 466.47l339.36-6.15M705.42 466.47l-4.53.08" stroke="#3a414a" stroke-width="3" fill="none"/><path d="M1059.22 460.05l-12.85 7.74-.27-15z" stroke="#3a414a" stroke-width="3" fill="#3a414a"/><path d="M705.3 467l346.98 127M705.33 467.03l-4.26-1.56" stroke="#3a414a" stroke-width="3" fill="none"/><path d="M1065.9 598.97l-14.8 2.58 5.17-14.1z" stroke="#3a414a" stroke-width="3" fill="#3a414a"/><path d="M705.9 467.4l342.5 261.97" stroke="#3a414a" stroke-width="3" fill="none"/><path d="M706.84 466.26l-1.8 2.35-2.74-2.1h2.42v-1.86z" stroke="#3a414a" stroke-width=".05" fill="#3a414a"/><path d="M1059.92 738.18l-14.88-1.94 9.12-11.9z" stroke="#3a414a" stroke-width="3" fill="#3a414a"/><path d="M704.88 467.63l352.26 399.25M704.9 467.65l-3-3.4" stroke="#3a414a" stroke-width="3" fill="none"/><path d="M1066.72 877.75l-14.2-4.78 11.23-9.92z" stroke="#3a414a" stroke-width="3" fill="#3a414a"/><path d="M704.7 467.75l354.38 537.65M704.73 467.8l-2.5-3.8" stroke="#3a414a" stroke-width="3" fill="none"/><path d="M1067.06 1017.5l-13.4-6.72 12.5-8.26z" stroke="#3a414a" stroke-width="3" fill="#3a414a"/><path d="M704.6 467.82l360.44 679.35M704.6 467.86l-2.12-4" stroke="#3a414a" stroke-width="3" fill="none"/><path d="M1071.83 1159.97l-12.7-7.96 13.24-7.02z" stroke="#3a414a" stroke-width="3" fill="#3a414a"/><path d="M704.47 467.88l357.36 836.04M704.5 467.92l-1.8-4.18" stroke="#3a414a" stroke-width="3" fill="none"/><path d="M1067.53 1317.24l-12-9 13.8-5.9z" stroke="#3a414a" stroke-width="3" fill="#3a414a"/><path d="M2162.53 615.95l-224.78-89.48M2162.5 615.93l4.2 1.68" stroke="#3a414a" stroke-width="3" fill="none"/><path d="M1924.3 521.1l14.83-2.15-5.55 13.93z" stroke="#3a414a" stroke-width="3" fill="#3a414a"/><path d="M2162.68 617.34L1936 770.22M2162.65 617.36l3.76-2.54" stroke="#3a414a" stroke-width="3" fill="none"/><path d="M1924 778.32l6.56-13.48 8.4 12.44z" stroke="#3a414a" stroke-width="3" fill="#3a414a"/><defs><path d="M135 0v-1490h305c1 251 0 501-5 746 157-254 405-512 598-746h373L849-845 1422 0h-361L638-644 440-426V0H135" id="ac"/><path d="M128 0v-1118h300V0H128zm150-1264c-91 0-165-68-165-154 0-85 74-154 165-154 90 0 165 69 165 154 0 86-75 154-165 154" id="ad"/><path d="M428-647V0H128v-1118h283l4 231c63-156 176-245 348-245 232 0 384 159 384 421V0H847v-659c0-139-76-222-202-222-128 0-217 86-217 234" id="ae"/><path d="M625 442c-280 0-454-114-503-274l258-72c28 63 97 128 243 128 153 0 246-69 246-216v-206h-23C805-108 717-16 536-16 284-16 81-191 81-561c0-378 208-571 456-571 188 0 280 113 321 202h13v-188h295V-9c0 303-226 451-541 451zm5-686c153 0 240-119 240-319 0-198-86-329-240-329-158 0-241 137-241 329 0 195 85 319 241 319" id="af"/><path d="M537 19C279 19 81-185 81-557c0-382 206-575 454-575 190 0 278 113 318 202h10v-560h300V0H868v-179h-15C812-89 719 19 537 19zm92-241c153 0 240-134 240-336 0-203-86-334-240-334-158 0-240 138-240 334 0 197 84 336 240 336" id="ag"/><path d="M628 22C291 22 81-210 81-554c0-346 210-578 547-578 336 0 547 232 547 578 0 344-211 576-547 576zm0-236c160 0 242-146 242-341 0-197-82-341-242-341S387-753 387-555c0 195 81 341 241 341" id="ah"/><path d="M128 0v-1118h278l12 217c60-163 185-234 319-234 143 0 236 81 288 251 63-172 205-251 359-251 205 0 357 138 357 381V0h-301v-697c0-126-76-187-177-187-114 0-184 79-184 196V0H789v-705c0-109-72-179-174-179-106 0-187 74-187 208V0H128" id="ai"/><path d="M572 22C302 22 117-98 78-306l279-48c29 105 101 156 224 156 114 0 185-48 185-115 0-118-228-130-337-155-215-49-322-150-322-317 0-215 187-347 470-347 265 0 424 116 466 298l-266 47c-24-76-87-130-196-130-98 0-174 46-174 113 0 56 38 95 144 117l201 40c216 44 320 143 320 302 0 220-207 367-500 367" id="aj"/><g id="a"><use transform="matrix(0.014105902777777778,0,0,0.014105902777777778,0,0)" xlink:href="#ac"/><use transform="matrix(0.014105902777777778,0,0,0.014105902777777778,20.989583333333336,0)" xlink:href="#ad"/><use transform="matrix(0.014105902777777778,0,0,0.014105902777777778,28.818359375000004,0)" xlink:href="#ae"/><use transform="matrix(0.014105902777777778,0,0,0.014105902777777778,46.80338541666667,0)" xlink:href="#af"/><use transform="matrix(0.014105902777777778,0,0,0.014105902777777778,65.05642361111111,0)" xlink:href="#ag"/><use transform="matrix(0.014105902777777778,0,0,0.014105902777777778,83.26714409722223,0)" xlink:href="#ah"/><use transform="matrix(0.014105902777777778,0,0,0.014105902777777778,100.98415798611111,0)" xlink:href="#ai"/><use transform="matrix(0.014105902777777778,0,0,0.014105902777777778,127.34809027777779,0)" xlink:href="#aj"/></g><path d="M681 22C323 22 94-145 85-462h297c10 151 131 226 296 226 163 0 271-77 271-190 0-102-95-149-257-189l-164-41c-252-61-403-188-403-405 0-269 236-449 560-449 330 0 546 183 551 445H941c-11-119-106-188-259-188-156 0-244 72-244 172-3 156 226 185 373 221 250 61 445 186 445 436 0 271-213 446-575 446" id="ak"/><path d="M120 396l69-226c123 42 245 23 254-107l8-60L31-1118h319c87 288 199 559 259 872 72-308 185-583 277-872h315L726 132c-68 181-186 294-410 294-79 0-153-13-196-30" id="al"/><path d="M683-1118v229H474v562c0 71 29 104 102 104 23 0 73-7 95-13l43 225C647 9 580 16 520 16 296 16 174-96 174-301v-588H20v-229h154v-266h300v266h209" id="am"/><path d="M633 22C291 22 81-200 81-553c0-345 210-579 537-579 292 0 525 185 525 567v84H378c7 183 109 277 260 277 105 0 184-46 216-132l272 51C1071-99 893 22 633 22zM380-669h474c-15-146-94-237-233-237-143 0-229 99-241 237" id="an"/><g id="b"><use transform="matrix(0.014105902777777778,0,0,0.014105902777777778,0,0)" xlink:href="#ak"/><use transform="matrix(0.014105902777777778,0,0,0.014105902777777778,18.916015625,0)" xlink:href="#al"/><use transform="matrix(0.014105902777777778,0,0,0.014105902777777778,36.30859375,0)" xlink:href="#aj"/><use transform="matrix(0.014105902777777778,0,0,0.014105902777777778,52.488064236111114,0)" xlink:href="#am"/><use transform="matrix(0.014105902777777778,0,0,0.014105902777777778,62.78537326388889,0)" xlink:href="#an"/><use transform="matrix(0.014105902777777778,0,0,0.014105902777777778,79.99457465277779,0)" xlink:href="#ai"/></g><path d="M180 0v-1490h510c348 0 508 209 508 474 0 266-160 477-507 477H370V0H180zm190-706h312c236 0 327-133 327-310 0-176-91-307-329-307H370v617" id="ao"/><path d="M338-1490V0H158v-1490h180" id="ap"/><path d="M471 26C259 26 90-98 90-318c0-256 228-303 435-329 202-27 287-16 287-108 0-139-79-219-234-219-161 0-248 86-283 164l-173-57c86-203 278-265 451-265 150 0 419 46 419 395V0H815v-152h-12C765-73 660 26 471 26zm31-159c199 0 310-134 310-271v-155c-30 35-226 55-295 64-131 17-246 59-246 186 0 116 97 176 231 176" id="aq"/><path d="M140 405l46-156c120 36 205 19 263-150l32-93L54-1118h197c107 313 237 620 324 950 87-331 219-637 326-950h196L606 167c-68 178-176 259-334 259-64 0-113-12-132-21" id="ar"/><path d="M628 24c-324 0-524-230-524-574 0-343 198-582 503-582 237 0 487 146 487 559v75H286c9 234 145 362 343 362 132 0 231-58 273-172l174 48C1024-91 857 24 628 24zM287-650h624c-17-190-120-322-304-322-192 0-309 151-320 322" id="as"/><path d="M158 0v-1118h174v172h12c41-113 157-188 290-188 26 0 70 2 91 3v181c-11-2-60-10-108-10-161 0-279 109-279 260V0H158" id="at"/><g id="c"><use transform="matrix(0.010850694444444444,0,0,0.010850694444444444,0,0)" xlink:href="#ao"/><use transform="matrix(0.010850694444444444,0,0,0.010850694444444444,14.192708333333332,0)" xlink:href="#ap"/><use transform="matrix(0.010850694444444444,0,0,0.010850694444444444,19.57465277777778,0)" xlink:href="#aq"/><use transform="matrix(0.010850694444444444,0,0,0.010850694444444444,31.72743055555556,0)" xlink:href="#ar"/><use transform="matrix(0.010850694444444444,0,0,0.010850694444444444,43.782552083333336,0)" xlink:href="#as"/><use transform="matrix(0.010850694444444444,0,0,0.010850694444444444,56.73828125,0)" xlink:href="#at"/></g><path d="M52 0l541-1490h220L1361 0h-200l-149-416H398L254 0H52zm404-582h497c-103-290-145-390-251-756-108 377-145 460-246 756" id="au"/><path d="M577 24c-279 0-473-224-473-580 0-354 195-576 474-576 218 0 287 134 324 193h14v-551h180V0H922v-173h-20C865-111 790 24 577 24zm27-161c203 0 314-172 314-421 0-247-108-413-314-413-212 0-317 181-317 413 0 235 108 421 317 421" id="av"/><path d="M158 0v-1118h175l1 205c55-151 181-225 313-225 147 0 245 90 285 228 53-141 190-228 352-228 194 0 352 125 352 384V0h-181v-749c0-161-105-225-225-225-151 0-243 103-243 244V0H807v-767c0-124-93-207-219-207-131 0-250 92-250 270V0H158" id="aw"/><path d="M158 0v-1118h180V0H158zm91-1301c-68 0-125-53-125-119s57-119 125-119c69 0 126 53 126 119s-57 119-126 119" id="ax"/><path d="M338-670V0H158v-1118h173l1 207c72-158 192-221 342-221 226 0 378 139 378 422V0H872v-695c0-172-96-275-252-275-161 0-282 109-282 300" id="ay"/><g id="d"><use transform="matrix(0.010850694444444444,0,0,0.010850694444444444,0,0)" xlink:href="#au"/><use transform="matrix(0.010850694444444444,0,0,0.010850694444444444,15.33203125,0)" xlink:href="#av"/><use transform="matrix(0.010850694444444444,0,0,0.010850694444444444,28.938802083333332,0)" xlink:href="#aw"/><use transform="matrix(0.010850694444444444,0,0,0.010850694444444444,48.404947916666664,0)" xlink:href="#ax"/><use transform="matrix(0.010850694444444444,0,0,0.010850694444444444,53.78689236111111,0)" xlink:href="#ay"/></g><path d="M180 0v-1490h510c348 0 508 194 508 460 0 198-88 351-276 417L1256 0h-220L726-579c-117 2-238 0-356 1V0H180zm190-747h312c235 0 327-108 327-283 0-177-92-293-329-293H370v576" id="az"/><path d="M611 442c-248 0-391-105-460-228l146-94c47 65 117 165 314 165 178 0 307-82 307-266v-224h-17C863-141 792-18 576-18c-268 0-472-195-472-546 0-346 197-568 476-568 216 0 288 133 326 193h17v-179h175V29c0 289-215 413-487 413zm-5-620c203 0 314-146 314-390 0-237-108-403-314-403-213 0-319 180-319 403 0 230 109 390 319 390" id="aA"/><path d="M538 24C308 24 148-78 108-271l171-41c32 123 123 178 257 178 156 0 256-77 256-169 0-77-54-128-164-154l-186-44c-203-48-300-148-300-305 0-192 176-326 414-326 230 0 351 112 402 269l-163 42c-31-80-94-158-238-158-133 0-233 69-233 162 0 83 57 129 188 160l169 40c203 48 298 149 298 302 0 196-179 339-441 339" id="aB"/><path d="M598-1118v154H368v674c0 100 37 144 132 144 23 0 62-6 92-12L629-6c-37 13-88 20-134 20-193 0-307-107-307-290v-688H20v-154h168v-266h180v266h230" id="aC"/><g id="e"><use transform="matrix(0.010850694444444444,0,0,0.010850694444444444,0,0)" xlink:href="#az"/><use transform="matrix(0.010850694444444444,0,0,0.010850694444444444,13.975694444444445,0)" xlink:href="#as"/><use transform="matrix(0.010850694444444444,0,0,0.010850694444444444,26.931423611111104,0)" xlink:href="#aA"/><use transform="matrix(0.010850694444444444,0,0,0.010850694444444444,40.55989583333333,0)" xlink:href="#ax"/><use transform="matrix(0.010850694444444444,0,0,0.010850694444444444,45.94184027777778,0)" xlink:href="#aB"/><use transform="matrix(0.010850694444444444,0,0,0.010850694444444444,57.67144097222221,0)" xlink:href="#aC"/><use transform="matrix(0.010850694444444444,0,0,0.010850694444444444,64.7243923611111,0)" xlink:href="#as"/><use transform="matrix(0.010850694444444444,0,0,0.010850694444444444,77.68012152777777,0)" xlink:href="#at"/></g><path d="M692-1560L212 224H46l480-1784h166" id="aD"/><use transform="matrix(0.010850694444444444,0,0,0.010850694444444444,0,0)" xlink:href="#aD" id="f"/><path d="M180 0v-1490h190v1322h690V0H180" id="aE"/><path d="M613 24c-304 0-509-231-509-576 0-350 205-580 509-580 305 0 511 230 511 580 0 345-206 576-511 576zm0-161c226 0 329-195 329-415 0-222-103-419-329-419-223 0-326 196-326 419 0 220 103 415 326 415" id="aF"/><g id="g"><use transform="matrix(0.010850694444444444,0,0,0.010850694444444444,0,0)" xlink:href="#aE"/><use transform="matrix(0.010850694444444444,0,0,0.010850694444444444,12.565104166666666,0)" xlink:href="#aF"/><use transform="matrix(0.010850694444444444,0,0,0.010850694444444444,25.889756944444443,0)" xlink:href="#aA"/><use transform="matrix(0.010850694444444444,0,0,0.010850694444444444,39.518229166666664,0)" xlink:href="#ax"/><use transform="matrix(0.010850694444444444,0,0,0.010850694444444444,44.90017361111111,0)" xlink:href="#ay"/></g><path d="M789 20c-398 0-667-293-667-764 0-473 273-766 655-766 315 0 558 198 612 487h-196c-61-191-204-311-415-311-262 0-471 207-471 590 0 380 208 588 482 588 249 0 420-165 425-427H828v-166h572v163c0 370-256 606-611 606" id="aG"/><g id="h"><use transform="matrix(0.010850694444444444,0,0,0.010850694444444444,0,0)" xlink:href="#aG"/><use transform="matrix(0.010850694444444444,0,0,0.010850694444444444,16.57986111111111,0)" xlink:href="#as"/><use transform="matrix(0.010850694444444444,0,0,0.010850694444444444,29.535590277777775,0)" xlink:href="#aC"/></g><path d="M180 0v-1490h190c0 262 1 526-3 784 217-279 467-523 702-784h249L716-845 1319 0h-225L585-716 370-489V0H180" id="aH"/><g id="i"><use transform="matrix(0.010850694444444444,0,0,0.010850694444444444,0,0)" xlink:href="#aH"/><use transform="matrix(0.010850694444444444,0,0,0.010850694444444444,15.277777777777777,0)" xlink:href="#ax"/><use transform="matrix(0.010850694444444444,0,0,0.010850694444444444,20.65972222222222,0)" xlink:href="#ay"/><use transform="matrix(0.010850694444444444,0,0,0.010850694444444444,33.7890625,0)" xlink:href="#aA"/><use transform="matrix(0.010850694444444444,0,0,0.010850694444444444,47.41753472222222,0)" xlink:href="#av"/><use transform="matrix(0.010850694444444444,0,0,0.010850694444444444,61.02430555555555,0)" xlink:href="#aF"/><use transform="matrix(0.010850694444444444,0,0,0.010850694444444444,74.34895833333333,0)" xlink:href="#aw"/></g><path d="M613 24c-304 0-509-231-509-576 0-350 205-580 509-580 216 0 392 114 453 309l-173 49c-33-115-133-197-280-197-223 0-326 196-326 419 0 220 103 415 326 415 150 0 252-85 285-206l172 49C1010-95 832 24 613 24" id="aI"/><g id="j"><use transform="matrix(0.010850694444444444,0,0,0.010850694444444444,0,0)" xlink:href="#az"/><use transform="matrix(0.010850694444444444,0,0,0.010850694444444444,13.975694444444445,0)" xlink:href="#as"/><use transform="matrix(0.010850694444444444,0,0,0.010850694444444444,26.931423611111104,0)" xlink:href="#aI"/><use transform="matrix(0.010850694444444444,0,0,0.010850694444444444,39.62673611111111,0)" xlink:href="#aF"/><use transform="matrix(0.010850694444444444,0,0,0.010850694444444444,52.951388888888886,0)" xlink:href="#aw"/><use transform="matrix(0.010850694444444444,0,0,0.010850694444444444,72.41753472222221,0)" xlink:href="#aw"/><use transform="matrix(0.010850694444444444,0,0,0.010850694444444444,91.88368055555556,0)" xlink:href="#as"/><use transform="matrix(0.010850694444444444,0,0,0.010850694444444444,104.83940972222221,0)" xlink:href="#ay"/><use transform="matrix(0.010850694444444444,0,0,0.010850694444444444,117.96874999999997,0)" xlink:href="#av"/><use transform="matrix(0.010850694444444444,0,0,0.010850694444444444,131.57552083333331,0)" xlink:href="#aq"/><use transform="matrix(0.010850694444444444,0,0,0.010850694444444444,144.05381944444443,0)" xlink:href="#aC"/><use transform="matrix(0.010850694444444444,0,0,0.010850694444444444,151.3237847222222,0)" xlink:href="#ax"/><use transform="matrix(0.010850694444444444,0,0,0.010850694444444444,156.70572916666666,0)" xlink:href="#aF"/><use transform="matrix(0.010850694444444444,0,0,0.010850694444444444,170.03038194444443,0)" xlink:href="#ay"/></g><path d="M677 24c-213 0-288-135-325-197h-20V0H158v-1490h180v551h14c37-59 106-193 324-193 279 0 474 222 474 576 0 356-194 580-473 580zm-27-161c209 0 317-186 317-421 0-232-105-413-317-413-206 0-314 166-314 413 0 249 111 421 314 421" id="aJ"/><g id="k"><use transform="matrix(0.010850694444444444,0,0,0.010850694444444444,0,0)" xlink:href="#aJ"/><use transform="matrix(0.010850694444444444,0,0,0.010850694444444444,13.172743055555552,0)" xlink:href="#ar"/></g><path d="M370-1490V0H180v-1490h190" id="aK"/><g id="l"><use transform="matrix(0.010850694444444444,0,0,0.010850694444444444,0,0)" xlink:href="#au"/><use transform="matrix(0.010850694444444444,0,0,0.010850694444444444,15.33203125,0)" xlink:href="#aK"/></g><path d="M600 0L52-1490h200c166 485 304 806 458 1336 156-533 285-846 449-1336h202L819 0H600" id="aL"/><path d="M409 0L70-1118h191c89 329 165 560 243 925 75-353 154-601 240-925h192c85 325 161 564 235 922 77-354 157-598 244-922h191L1267 0h-179c-86-307-176-590-250-913C763-588 675-308 588 0H409" id="aM"/><g id="m"><use transform="matrix(0.010850694444444444,0,0,0.010850694444444444,0,0)" xlink:href="#aL"/><use transform="matrix(0.010850694444444444,0,0,0.010850694444444444,15.33203125,0)" xlink:href="#ax"/><use transform="matrix(0.010850694444444444,0,0,0.010850694444444444,20.713975694444443,0)" xlink:href="#as"/><use transform="matrix(0.010850694444444444,0,0,0.010850694444444444,33.268229166666664,0)" xlink:href="#aM"/><use transform="matrix(0.010850694444444444,0,0,0.010850694444444444,51.45399305555556,0)" xlink:href="#aD"/></g><path d="M545 20c-263 0-445-160-445-446v-80h190v80c0 182 102 279 255 279 152 0 254-97 254-279v-1064h190v1064c0 286-181 446-444 446" id="aN"/><g id="n"><use transform="matrix(0.010850694444444444,0,0,0.010850694444444444,0,0)" xlink:href="#aN"/><use transform="matrix(0.010850694444444444,0,0,0.010850694444444444,12.684461805555555,0)" xlink:href="#aF"/><use transform="matrix(0.010850694444444444,0,0,0.010850694444444444,26.009114583333332,0)" xlink:href="#ax"/><use transform="matrix(0.010850694444444444,0,0,0.010850694444444444,31.391059027777775,0)" xlink:href="#ay"/></g><g id="o"><use transform="matrix(0.010850694444444444,0,0,0.010850694444444444,0,0)" xlink:href="#aH"/><use transform="matrix(0.010850694444444444,0,0,0.010850694444444444,15.277777777777777,0)" xlink:href="#ax"/><use transform="matrix(0.010850694444444444,0,0,0.010850694444444444,20.65972222222222,0)" xlink:href="#ay"/><use transform="matrix(0.010850694444444444,0,0,0.010850694444444444,33.7890625,0)" xlink:href="#aA"/><use transform="matrix(0.010850694444444444,0,0,0.010850694444444444,47.41753472222222,0)" xlink:href="#av"/><use transform="matrix(0.010850694444444444,0,0,0.010850694444444444,61.02430555555555,0)" xlink:href="#aF"/><use transform="matrix(0.010850694444444444,0,0,0.010850694444444444,74.34895833333333,0)" xlink:href="#aw"/><use transform="matrix(0.010850694444444444,0,0,0.010850694444444444,93.81510416666666,0)" xlink:href="#aB"/></g><g id="p"><use transform="matrix(0.010850694444444444,0,0,0.010850694444444444,0,0)" xlink:href="#aL"/><use transform="matrix(0.010850694444444444,0,0,0.010850694444444444,15.33203125,0)" xlink:href="#ax"/><use transform="matrix(0.010850694444444444,0,0,0.010850694444444444,20.713975694444443,0)" xlink:href="#as"/><use transform="matrix(0.010850694444444444,0,0,0.010850694444444444,33.268229166666664,0)" xlink:href="#aM"/></g><path d="M783 20c-382 0-661-292-661-764 0-473 279-766 661-766 302 0 548 182 601 489h-190c-42-204-217-313-411-313-268 0-476 208-476 590 0 381 209 588 476 588 195 0 369-110 411-313h190c-52 303-296 489-601 489" id="aO"/><path d="M338-670V0H158v-1490h180v566c73-149 190-208 336-208 226 0 379 139 379 422V0H872v-695c0-172-96-275-252-275-161 0-282 109-282 300" id="aP"/><g id="q"><use transform="matrix(0.010850694444444444,0,0,0.010850694444444444,0,0)" xlink:href="#aO"/><use transform="matrix(0.010850694444444444,0,0,0.010850694444444444,16.23263888888889,0)" xlink:href="#aP"/><use transform="matrix(0.010850694444444444,0,0,0.010850694444444444,29.37282986111111,0)" xlink:href="#aq"/><use transform="matrix(0.010850694444444444,0,0,0.010850694444444444,41.85112847222222,0)" xlink:href="#ap"/><use transform="matrix(0.010850694444444444,0,0,0.010850694444444444,47.233072916666664,0)" xlink:href="#ap"/><use transform="matrix(0.010850694444444444,0,0,0.010850694444444444,52.61501736111111,0)" xlink:href="#as"/><use transform="matrix(0.010850694444444444,0,0,0.010850694444444444,65.57074652777777,0)" xlink:href="#ay"/><use transform="matrix(0.010850694444444444,0,0,0.010850694444444444,78.70008680555554,0)" xlink:href="#aA"/><use transform="matrix(0.010850694444444444,0,0,0.010850694444444444,92.32855902777777,0)" xlink:href="#as"/><use transform="matrix(0.010850694444444444,0,0,0.010850694444444444,105.28428819444444,0)" xlink:href="#aB"/></g><path d="M158 418v-1536h174v179h20c37-59 106-193 324-193 279 0 474 222 474 576 0 356-194 580-473 580-213 0-288-135-325-197h-14v591H158zm492-555c209 0 317-186 317-421 0-232-105-413-317-413-206 0-314 166-314 413 0 249 111 421 314 421" id="aQ"/><g id="r"><use transform="matrix(0.010850694444444444,0,0,0.010850694444444444,0,0)" xlink:href="#aO"/><use transform="matrix(0.010850694444444444,0,0,0.010850694444444444,16.23263888888889,0)" xlink:href="#aF"/><use transform="matrix(0.010850694444444444,0,0,0.010850694444444444,29.557291666666664,0)" xlink:href="#aw"/><use transform="matrix(0.010850694444444444,0,0,0.010850694444444444,49.0234375,0)" xlink:href="#aQ"/><use transform="matrix(0.010850694444444444,0,0,0.010850694444444444,62.63020833333333,0)" xlink:href="#ap"/><use transform="matrix(0.010850694444444444,0,0,0.010850694444444444,68.01215277777777,0)" xlink:href="#as"/><use transform="matrix(0.010850694444444444,0,0,0.010850694444444444,80.96788194444444,0)" xlink:href="#aC"/><use transform="matrix(0.010850694444444444,0,0,0.010850694444444444,88.02083333333333,0)" xlink:href="#as"/></g><g id="s"><use transform="matrix(0.010850694444444444,0,0,0.010850694444444444,0,0)" xlink:href="#aO"/><use transform="matrix(0.010850694444444444,0,0,0.010850694444444444,16.23263888888889,0)" xlink:href="#aP"/><use transform="matrix(0.010850694444444444,0,0,0.010850694444444444,29.37282986111111,0)" xlink:href="#aq"/><use transform="matrix(0.010850694444444444,0,0,0.010850694444444444,41.85112847222222,0)" xlink:href="#ap"/><use transform="matrix(0.010850694444444444,0,0,0.010850694444444444,47.233072916666664,0)" xlink:href="#ap"/><use transform="matrix(0.010850694444444444,0,0,0.010850694444444444,52.61501736111111,0)" xlink:href="#as"/><use transform="matrix(0.010850694444444444,0,0,0.010850694444444444,65.57074652777777,0)" xlink:href="#ay"/><use transform="matrix(0.010850694444444444,0,0,0.010850694444444444,78.70008680555554,0)" xlink:href="#aA"/><use transform="matrix(0.010850694444444444,0,0,0.010850694444444444,92.32855902777777,0)" xlink:href="#as"/></g><g id="t"><use transform="matrix(0.010850694444444444,0,0,0.010850694444444444,0,0)" xlink:href="#aL"/><use transform="matrix(0.010850694444444444,0,0,0.010850694444444444,15.33203125,0)" xlink:href="#ax"/><use transform="matrix(0.010850694444444444,0,0,0.010850694444444444,20.713975694444443,0)" xlink:href="#as"/><use transform="matrix(0.010850694444444444,0,0,0.010850694444444444,33.268229166666664,0)" xlink:href="#aM"/></g><g id="u"><use transform="matrix(0.010850694444444444,0,0,0.010850694444444444,0,0)" xlink:href="#aE"/><use transform="matrix(0.010850694444444444,0,0,0.010850694444444444,12.565104166666666,0)" xlink:href="#as"/><use transform="matrix(0.010850694444444444,0,0,0.010850694444444444,25.73784722222222,0)" xlink:href="#aq"/><use transform="matrix(0.010850694444444444,0,0,0.010850694444444444,38.21614583333333,0)" xlink:href="#av"/><use transform="matrix(0.010850694444444444,0,0,0.010850694444444444,51.82291666666666,0)" xlink:href="#as"/><use transform="matrix(0.010850694444444444,0,0,0.010850694444444444,64.77864583333333,0)" xlink:href="#at"/><use transform="matrix(0.010850694444444444,0,0,0.010850694444444444,73.49175347222223,0)" xlink:href="#aJ"/><use transform="matrix(0.010850694444444444,0,0,0.010850694444444444,87.09852430555556,0)" xlink:href="#aF"/><use transform="matrix(0.010850694444444444,0,0,0.010850694444444444,100.64019097222221,0)" xlink:href="#aq"/><use transform="matrix(0.010850694444444444,0,0,0.010850694444444444,113.11848958333333,0)" xlink:href="#at"/><use transform="matrix(0.010850694444444444,0,0,0.010850694444444444,121.11545138888889,0)" xlink:href="#av"/></g><g id="v"><use transform="matrix(0.010850694444444444,0,0,0.010850694444444444,0,0)" xlink:href="#aE"/><use transform="matrix(0.010850694444444444,0,0,0.010850694444444444,12.565104166666666,0)" xlink:href="#aF"/><use transform="matrix(0.010850694444444444,0,0,0.010850694444444444,25.889756944444443,0)" xlink:href="#aJ"/><use transform="matrix(0.010850694444444444,0,0,0.010850694444444444,39.49652777777777,0)" xlink:href="#aJ"/><use transform="matrix(0.010850694444444444,0,0,0.010850694444444444,53.1032986111111,0)" xlink:href="#ax"/><use transform="matrix(0.010850694444444444,0,0,0.010850694444444444,58.48524305555554,0)" xlink:href="#as"/><use transform="matrix(0.010850694444444444,0,0,0.010850694444444444,71.44097222222221,0)" xlink:href="#aB"/></g><g id="w"><use transform="matrix(0.010850694444444444,0,0,0.010850694444444444,0,0)" xlink:href="#aO"/><use transform="matrix(0.010850694444444444,0,0,0.010850694444444444,16.23263888888889,0)" xlink:href="#at"/><use transform="matrix(0.010850694444444444,0,0,0.010850694444444444,24.229600694444443,0)" xlink:href="#as"/><use transform="matrix(0.010850694444444444,0,0,0.010850694444444444,37.40234375,0)" xlink:href="#aq"/><use transform="matrix(0.010850694444444444,0,0,0.010850694444444444,49.88064236111111,0)" xlink:href="#aC"/><use transform="matrix(0.010850694444444444,0,0,0.010850694444444444,56.93359375000001,0)" xlink:href="#as"/></g><g id="x"><use transform="matrix(0.010850694444444444,0,0,0.010850694444444444,0,0)" xlink:href="#aE"/><use transform="matrix(0.010850694444444444,0,0,0.010850694444444444,12.565104166666666,0)" xlink:href="#aF"/><use transform="matrix(0.010850694444444444,0,0,0.010850694444444444,25.889756944444443,0)" xlink:href="#aJ"/><use transform="matrix(0.010850694444444444,0,0,0.010850694444444444,39.49652777777777,0)" xlink:href="#aJ"/><use transform="matrix(0.010850694444444444,0,0,0.010850694444444444,52.66927083333333,0)" xlink:href="#ar"/></g><path d="M537 14c-226 0-379-139-379-422v-710h180v695c0 172 97 275 253 275 160 0 281-109 281-300v-670h181V0H879v-209C806-46 684 14 537 14" id="aR"/><g id="y"><use transform="matrix(0.010850694444444444,0,0,0.010850694444444444,0,0)" xlink:href="#ao"/><use transform="matrix(0.010850694444444444,0,0,0.010850694444444444,14.192708333333332,0)" xlink:href="#aR"/><use transform="matrix(0.010850694444444444,0,0,0.010850694444444444,27.332899305555554,0)" xlink:href="#aJ"/><use transform="matrix(0.010850694444444444,0,0,0.010850694444444444,40.939670138888886,0)" xlink:href="#ap"/><use transform="matrix(0.010850694444444444,0,0,0.010850694444444444,46.32161458333333,0)" xlink:href="#ax"/><use transform="matrix(0.010850694444444444,0,0,0.010850694444444444,51.70355902777778,0)" xlink:href="#aI"/></g><path d="M158 0v-1490h180v865h22l478-493h223L593-638 1096 0H865L456-523 338-412V0H158" id="aS"/><g id="z"><use transform="matrix(0.010850694444444444,0,0,0.010850694444444444,0,0)" xlink:href="#aE"/><use transform="matrix(0.010850694444444444,0,0,0.010850694444444444,12.565104166666666,0)" xlink:href="#ax"/><use transform="matrix(0.010850694444444444,0,0,0.010850694444444444,17.94704861111111,0)" xlink:href="#ay"/><use transform="matrix(0.010850694444444444,0,0,0.010850694444444444,31.07638888888889,0)" xlink:href="#aS"/></g><path d="M180 0v-1490h908v168H370v486h669v168H370v500h727V0H180" id="aT"/><path d="M65 0l393-574-370-544h210c88 136 192 297 267 435 67-142 176-302 264-435h206L661-564 1053 0H844c-94-144-206-310-287-458C484-308 366-142 273 0H65" id="aU"/><g id="A"><use transform="matrix(0.010850694444444444,0,0,0.010850694444444444,0,0)" xlink:href="#aT"/><use transform="matrix(0.010850694444444444,0,0,0.010850694444444444,13.35720486111111,0)" xlink:href="#aU"/><use transform="matrix(0.010850694444444444,0,0,0.010850694444444444,25.92230902777778,0)" xlink:href="#aC"/><use transform="matrix(0.010850694444444444,0,0,0.010850694444444444,32.975260416666664,0)" xlink:href="#as"/><use transform="matrix(0.010850694444444444,0,0,0.010850694444444444,45.93098958333333,0)" xlink:href="#at"/><use transform="matrix(0.010850694444444444,0,0,0.010850694444444444,54.64409722222221,0)" xlink:href="#ay"/><use transform="matrix(0.010850694444444444,0,0,0.010850694444444444,67.77343749999999,0)" xlink:href="#aq"/><use transform="matrix(0.010850694444444444,0,0,0.010850694444444444,80.2517361111111,0)" xlink:href="#ap"/></g><g id="B"><use transform="matrix(0.010850694444444444,0,0,0.010850694444444444,0,0)" xlink:href="#au"/><use transform="matrix(0.010850694444444444,0,0,0.010850694444444444,15.33203125,0)" xlink:href="#aI"/><use transform="matrix(0.010850694444444444,0,0,0.010850694444444444,28.02734375,0)" xlink:href="#aI"/><use transform="matrix(0.010850694444444444,0,0,0.010850694444444444,40.72265625,0)" xlink:href="#aF"/><use transform="matrix(0.010850694444444444,0,0,0.010850694444444444,54.04730902777778,0)" xlink:href="#aR"/><use transform="matrix(0.010850694444444444,0,0,0.010850694444444444,67.1875,0)" xlink:href="#ay"/><use transform="matrix(0.010850694444444444,0,0,0.010850694444444444,80.31684027777777,0)" xlink:href="#aC"/></g><path d="M180 0v-1490h270l367 940c28 72 75 218 110 339 35-117 81-264 110-339l362-940h271V0h-187c2-448-5-837 7-1287-157 497-311 829-483 1287H842C666-458 514-784 354-1284c12 438 5 843 7 1284H180" id="aV"/><g id="C"><use transform="matrix(0.010850694444444444,0,0,0.010850694444444444,0,0)" xlink:href="#aV"/><use transform="matrix(0.010850694444444444,0,0,0.010850694444444444,20.07378472222222,0)" xlink:href="#aq"/><use transform="matrix(0.010850694444444444,0,0,0.010850694444444444,32.55208333333333,0)" xlink:href="#ay"/><use transform="matrix(0.010850694444444444,0,0,0.010850694444444444,45.68142361111111,0)" xlink:href="#aq"/><use transform="matrix(0.010850694444444444,0,0,0.010850694444444444,58.15972222222221,0)" xlink:href="#aA"/><use transform="matrix(0.010850694444444444,0,0,0.010850694444444444,71.78819444444443,0)" xlink:href="#as"/></g><path d="M657 26c-323 0-524-166-541-416h195c15 169 171 246 346 246 202 0 356-106 356-265 5-203-294-238-475-293-239-73-380-191-380-389 0-252 224-419 512-419 294 0 499 171 508 396H992c-17-145-151-228-328-228-193 0-321 102-321 242 0 156 175 211 284 241l149 41c160 44 422 134 422 412 0 244-197 432-541 432" id="aW"/><g id="D"><use transform="matrix(0.010850694444444444,0,0,0.010850694444444444,0,0)" xlink:href="#aW"/><use transform="matrix(0.010850694444444444,0,0,0.010850694444444444,14.2578125,0)" xlink:href="#aR"/><use transform="matrix(0.010850694444444444,0,0,0.010850694444444444,27.39800347222222,0)" xlink:href="#aJ"/><use transform="matrix(0.010850694444444444,0,0,0.010850694444444444,41.00477430555556,0)" xlink:href="#aB"/><use transform="matrix(0.010850694444444444,0,0,0.010850694444444444,52.734375,0)" xlink:href="#aI"/><use transform="matrix(0.010850694444444444,0,0,0.010850694444444444,65.4296875,0)" xlink:href="#at"/><use transform="matrix(0.010850694444444444,0,0,0.010850694444444444,74.1427951388889,0)" xlink:href="#ax"/><use transform="matrix(0.010850694444444444,0,0,0.010850694444444444,79.52473958333334,0)" xlink:href="#aQ"/><use transform="matrix(0.010850694444444444,0,0,0.010850694444444444,93.13151041666666,0)" xlink:href="#aC"/><use transform="matrix(0.010850694444444444,0,0,0.010850694444444444,100.40147569444444,0)" xlink:href="#ax"/><use transform="matrix(0.010850694444444444,0,0,0.010850694444444444,105.78342013888889,0)" xlink:href="#aF"/><use transform="matrix(0.010850694444444444,0,0,0.010850694444444444,119.10807291666666,0)" xlink:href="#ay"/></g><g id="E"><use transform="matrix(0.010850694444444444,0,0,0.010850694444444444,0,0)" xlink:href="#aG"/><use transform="matrix(0.010850694444444444,0,0,0.010850694444444444,16.57986111111111,0)" xlink:href="#as"/><use transform="matrix(0.010850694444444444,0,0,0.010850694444444444,29.535590277777775,0)" xlink:href="#ay"/><use transform="matrix(0.010850694444444444,0,0,0.010850694444444444,42.66493055555556,0)" xlink:href="#as"/><use transform="matrix(0.010850694444444444,0,0,0.010850694444444444,55.62065972222222,0)" xlink:href="#at"/><use transform="matrix(0.010850694444444444,0,0,0.010850694444444444,63.986545138888886,0)" xlink:href="#aq"/><use transform="matrix(0.010850694444444444,0,0,0.010850694444444444,76.46484375,0)" xlink:href="#aC"/><use transform="matrix(0.010850694444444444,0,0,0.010850694444444444,83.51779513888889,0)" xlink:href="#as"/></g><g id="F"><use transform="matrix(0.010850694444444444,0,0,0.010850694444444444,0,0)" xlink:href="#au"/><use transform="matrix(0.010850694444444444,0,0,0.010850694444444444,15.33203125,0)" xlink:href="#aK"/></g><g id="G"><use transform="matrix(0.010850694444444444,0,0,0.010850694444444444,0,0)" xlink:href="#ao"/><use transform="matrix(0.010850694444444444,0,0,0.010850694444444444,14.192708333333332,0)" xlink:href="#ap"/><use transform="matrix(0.010850694444444444,0,0,0.010850694444444444,19.57465277777778,0)" xlink:href="#aq"/><use transform="matrix(0.010850694444444444,0,0,0.010850694444444444,31.72743055555556,0)" xlink:href="#ar"/><use transform="matrix(0.010850694444444444,0,0,0.010850694444444444,43.782552083333336,0)" xlink:href="#as"/><use transform="matrix(0.010850694444444444,0,0,0.010850694444444444,56.73828125,0)" xlink:href="#at"/></g><g id="H"><use transform="matrix(0.010850694444444444,0,0,0.010850694444444444,0,0)" xlink:href="#az"/><use transform="matrix(0.010850694444444444,0,0,0.010850694444444444,13.975694444444445,0)" xlink:href="#as"/><use transform="matrix(0.010850694444444444,0,0,0.010850694444444444,26.931423611111104,0)" xlink:href="#aQ"/><use transform="matrix(0.010850694444444444,0,0,0.010850694444444444,40.53819444444444,0)" xlink:href="#aF"/><use transform="matrix(0.010850694444444444,0,0,0.010850694444444444,53.86284722222222,0)" xlink:href="#at"/><use transform="matrix(0.010850694444444444,0,0,0.010850694444444444,62.57595486111111,0)" xlink:href="#aC"/></g><path d="M678-1118v154H420V0H240v-964H20v-154h220v-149c0-194 155-293 318-293 85 0 141 18 168 30l-50 154c-19-6-47-17-97-17-111 0-159 58-159 166v109h258" id="aX"/><g id="I"><use transform="matrix(0.010850694444444444,0,0,0.010850694444444444,0,0)" xlink:href="#aL"/><use transform="matrix(0.010850694444444444,0,0,0.010850694444444444,14.20355902777778,0)" xlink:href="#as"/><use transform="matrix(0.010850694444444444,0,0,0.010850694444444444,27.159288194444443,0)" xlink:href="#at"/><use transform="matrix(0.010850694444444444,0,0,0.010850694444444444,35.87239583333333,0)" xlink:href="#ax"/><use transform="matrix(0.010850694444444444,0,0,0.010850694444444444,41.25434027777777,0)" xlink:href="#aX"/><use transform="matrix(0.010850694444444444,0,0,0.010850694444444444,49.47916666666666,0)" xlink:href="#ar"/></g><g id="J"><use transform="matrix(0.010850694444444444,0,0,0.010850694444444444,0,0)" xlink:href="#aO"/><use transform="matrix(0.010850694444444444,0,0,0.010850694444444444,16.23263888888889,0)" xlink:href="#aP"/><use transform="matrix(0.010850694444444444,0,0,0.010850694444444444,29.37282986111111,0)" xlink:href="#aq"/><use transform="matrix(0.010850694444444444,0,0,0.010850694444444444,41.85112847222222,0)" xlink:href="#ap"/><use transform="matrix(0.010850694444444444,0,0,0.010850694444444444,47.233072916666664,0)" xlink:href="#ap"/><use transform="matrix(0.010850694444444444,0,0,0.010850694444444444,52.61501736111111,0)" xlink:href="#as"/><use transform="matrix(0.010850694444444444,0,0,0.010850694444444444,65.57074652777777,0)" xlink:href="#ay"/><use transform="matrix(0.010850694444444444,0,0,0.010850694444444444,78.70008680555554,0)" xlink:href="#aA"/><use transform="matrix(0.010850694444444444,0,0,0.010850694444444444,92.32855902777777,0)" xlink:href="#as"/></g><g id="K"><use transform="matrix(0.010850694444444444,0,0,0.010850694444444444,0,0)" xlink:href="#aO"/><use transform="matrix(0.010850694444444444,0,0,0.010850694444444444,16.23263888888889,0)" xlink:href="#aF"/><use transform="matrix(0.010850694444444444,0,0,0.010850694444444444,29.557291666666664,0)" xlink:href="#aw"/><use transform="matrix(0.010850694444444444,0,0,0.010850694444444444,49.0234375,0)" xlink:href="#aQ"/><use transform="matrix(0.010850694444444444,0,0,0.010850694444444444,62.63020833333333,0)" xlink:href="#ap"/><use transform="matrix(0.010850694444444444,0,0,0.010850694444444444,68.01215277777777,0)" xlink:href="#as"/><use transform="matrix(0.010850694444444444,0,0,0.010850694444444444,80.96788194444444,0)" xlink:href="#aC"/><use transform="matrix(0.010850694444444444,0,0,0.010850694444444444,88.23784722222221,0)" xlink:href="#ax"/><use transform="matrix(0.010850694444444444,0,0,0.010850694444444444,93.61979166666666,0)" xlink:href="#aF"/><use transform="matrix(0.010850694444444444,0,0,0.010850694444444444,106.94444444444441,0)" xlink:href="#ay"/></g><g id="L"><use transform="matrix(0.010850694444444444,0,0,0.010850694444444444,0,0)" xlink:href="#aT"/><use transform="matrix(0.010850694444444444,0,0,0.010850694444444444,13.35720486111111,0)" xlink:href="#aq"/><use transform="matrix(0.010850694444444444,0,0,0.010850694444444444,25.83550347222222,0)" xlink:href="#at"/><use transform="matrix(0.010850694444444444,0,0,0.010850694444444444,34.54861111111111,0)" xlink:href="#ay"/></g><path d="M57 0l534-763-501-727h220c122 187 296 416 391 605 94-191 272-419 396-605h215L811-770 1340 0h-219C986-204 811-426 699-640 588-430 407-202 273 0H57" id="aY"/><g id="M"><use transform="matrix(0.010850694444444444,0,0,0.010850694444444444,0,0)" xlink:href="#aY"/><use transform="matrix(0.010850694444444444,0,0,0.010850694444444444,15.158420138888888,0)" xlink:href="#ao"/><use transform="matrix(0.010850694444444444,0,0,0.010850694444444444,29.35112847222222,0)" xlink:href="#aD"/></g><path d="M180 0v-1490h528c311 0 458 177 458 395 0 191-114 278-244 313v14c139 9 302 137 302 371 0 225-148 397-499 397H180zm190-168h350c232 0 321-102 321-231 0-149-120-277-311-277H370v508zm0-668h328c160 0 286-101 286-255 0-129-87-231-280-231H370v486" id="aZ"/><g id="N"><use transform="matrix(0.010850694444444444,0,0,0.010850694444444444,0,0)" xlink:href="#aZ"/><use transform="matrix(0.010850694444444444,0,0,0.010850694444444444,14.539930555555555,0)" xlink:href="#aq"/><use transform="matrix(0.010850694444444444,0,0,0.010850694444444444,27.018229166666664,0)" xlink:href="#av"/><use transform="matrix(0.010850694444444444,0,0,0.010850694444444444,40.625,0)" xlink:href="#aA"/><use transform="matrix(0.010850694444444444,0,0,0.010850694444444444,54.25347222222222,0)" xlink:href="#as"/></g><g id="O"><use transform="matrix(0.010850694444444444,0,0,0.010850694444444444,0,0)" xlink:href="#aO"/><use transform="matrix(0.010850694444444444,0,0,0.010850694444444444,16.23263888888889,0)" xlink:href="#at"/><use transform="matrix(0.010850694444444444,0,0,0.010850694444444444,24.229600694444443,0)" xlink:href="#as"/><use transform="matrix(0.010850694444444444,0,0,0.010850694444444444,37.40234375,0)" xlink:href="#aq"/><use transform="matrix(0.010850694444444444,0,0,0.010850694444444444,49.88064236111111,0)" xlink:href="#aC"/><use transform="matrix(0.010850694444444444,0,0,0.010850694444444444,56.93359375000001,0)" xlink:href="#as"/></g><path d="M481 0L54-1118h197c107 314 236 620 325 951 87-331 217-637 324-951h197L670 0H481" id="ba"/><g id="P"><use transform="matrix(0.010850694444444444,0,0,0.010850694444444444,0,0)" xlink:href="#ao"/><use transform="matrix(0.010850694444444444,0,0,0.010850694444444444,14.192708333333332,0)" xlink:href="#at"/><use transform="matrix(0.010850694444444444,0,0,0.010850694444444444,22.90581597222222,0)" xlink:href="#ax"/><use transform="matrix(0.010850694444444444,0,0,0.010850694444444444,28.287760416666664,0)" xlink:href="#ba"/><use transform="matrix(0.010850694444444444,0,0,0.010850694444444444,40.66840277777778,0)" xlink:href="#aq"/><use transform="matrix(0.010850694444444444,0,0,0.010850694444444444,53.146701388888886,0)" xlink:href="#aC"/><use transform="matrix(0.010850694444444444,0,0,0.010850694444444444,60.19965277777778,0)" xlink:href="#as"/></g><path fill="#333" d="M166-471v-247l1019-454v289L492-601v13l693 282v287" id="bb"/><path fill="#333" d="M633 22C291 22 81-200 81-553c0-345 210-579 537-579 292 0 525 185 525 567v84H378c7 183 109 277 260 277 105 0 184-46 216-132l272 51C1071-99 893 22 633 22zM380-669h474c-15-146-94-237-233-237-143 0-229 99-241 237" id="bc"/><path fill="#333" d="M42 0l360-574-338-544h324c72 124 151 261 209 394 58-134 140-271 215-394h318L785-570 1146 0H824c-79-136-169-280-234-425C528-278 439-134 360 0H42" id="bd"/><path fill="#333" d="M683-1118v229H474v562c0 71 29 104 102 104 23 0 73-7 95-13l43 225C647 9 580 16 520 16 296 16 174-96 174-301v-588H20v-229h154v-266h300v266h209" id="be"/><path fill="#333" d="M428-647V0H128v-1118h283l4 231c63-156 176-245 348-245 232 0 384 159 384 421V0H847v-659c0-139-76-222-202-222-128 0-217 86-217 234" id="bf"/><path fill="#333" d="M537 19C279 19 81-185 81-557c0-382 206-575 454-575 190 0 278 113 318 202h10v-560h300V0H868v-179h-15C812-89 719 19 537 19zm92-241c153 0 240-134 240-336 0-203-86-334-240-334-158 0-240 138-240 334 0 197 84 336 240 336" id="bg"/><path fill="#333" d="M1224-471L205-19v-287l694-281v-14L205-883v-289l1019 454v247" id="bh"/><g id="Q"><use transform="matrix(0.008680555555555556,0,0,0.008680555555555556,0,0)" xlink:href="#bb"/><use transform="matrix(0.008680555555555556,0,0,0.008680555555555556,12.065972222222223,0)" xlink:href="#bb"/><use transform="matrix(0.008680555555555556,0,0,0.008680555555555556,24.131944444444446,0)" xlink:href="#bc"/><use transform="matrix(0.008680555555555556,0,0,0.008680555555555556,34.36631944444444,0)" xlink:href="#bd"/><use transform="matrix(0.008680555555555556,0,0,0.008680555555555556,44.93055555555556,0)" xlink:href="#be"/><use transform="matrix(0.008680555555555556,0,0,0.008680555555555556,51.26736111111111,0)" xlink:href="#bc"/><use transform="matrix(0.008680555555555556,0,0,0.008680555555555556,61.857638888888886,0)" xlink:href="#bf"/><use transform="matrix(0.008680555555555556,0,0,0.008680555555555556,72.92534722222221,0)" xlink:href="#bg"/><use transform="matrix(0.008680555555555556,0,0,0.008680555555555556,84.13194444444444,0)" xlink:href="#bh"/><use transform="matrix(0.008680555555555556,0,0,0.008680555555555556,96.19791666666667,0)" xlink:href="#bh"/></g><g id="R"><use transform="matrix(0.010850694444444444,0,0,0.010850694444444444,0,0)" xlink:href="#aK"/><use transform="matrix(0.010850694444444444,0,0,0.010850694444444444,5.967881944444445,0)" xlink:href="#ay"/><use transform="matrix(0.010850694444444444,0,0,0.010850694444444444,18.77170138888889,0)" xlink:href="#ba"/><use transform="matrix(0.010850694444444444,0,0,0.010850694444444444,31.260850694444443,0)" xlink:href="#ax"/><use transform="matrix(0.010850694444444444,0,0,0.010850694444444444,36.642795138888886,0)" xlink:href="#aC"/><use transform="matrix(0.010850694444444444,0,0,0.010850694444444444,43.69574652777778,0)" xlink:href="#as"/></g><g id="S"><use transform="matrix(0.010850694444444444,0,0,0.010850694444444444,0,0)" xlink:href="#ao"/><use transform="matrix(0.010850694444444444,0,0,0.010850694444444444,14.192708333333332,0)" xlink:href="#ap"/><use transform="matrix(0.010850694444444444,0,0,0.010850694444444444,19.57465277777778,0)" xlink:href="#aq"/><use transform="matrix(0.010850694444444444,0,0,0.010850694444444444,31.72743055555556,0)" xlink:href="#ar"/><use transform="matrix(0.010850694444444444,0,0,0.010850694444444444,43.782552083333336,0)" xlink:href="#as"/><use transform="matrix(0.010850694444444444,0,0,0.010850694444444444,56.73828125,0)" xlink:href="#at"/></g><g id="T"><use transform="matrix(0.010850694444444444,0,0,0.010850694444444444,0,0)" xlink:href="#aC"/><use transform="matrix(0.010850694444444444,0,0,0.010850694444444444,7.052951388888888,0)" xlink:href="#aF"/></g><g id="U"><use transform="matrix(0.010850694444444444,0,0,0.010850694444444444,0,0)" xlink:href="#aG"/><use transform="matrix(0.010850694444444444,0,0,0.010850694444444444,16.57986111111111,0)" xlink:href="#as"/><use transform="matrix(0.010850694444444444,0,0,0.010850694444444444,29.535590277777775,0)" xlink:href="#ay"/><use transform="matrix(0.010850694444444444,0,0,0.010850694444444444,42.66493055555556,0)" xlink:href="#as"/><use transform="matrix(0.010850694444444444,0,0,0.010850694444444444,55.62065972222222,0)" xlink:href="#at"/><use transform="matrix(0.010850694444444444,0,0,0.010850694444444444,63.986545138888886,0)" xlink:href="#aq"/><use transform="matrix(0.010850694444444444,0,0,0.010850694444444444,76.46484375,0)" xlink:href="#aC"/><use transform="matrix(0.010850694444444444,0,0,0.010850694444444444,83.51779513888889,0)" xlink:href="#as"/></g><g id="V"><use transform="matrix(0.010850694444444444,0,0,0.010850694444444444,0,0)" xlink:href="#aO"/><use transform="matrix(0.010850694444444444,0,0,0.010850694444444444,16.23263888888889,0)" xlink:href="#aP"/><use transform="matrix(0.010850694444444444,0,0,0.010850694444444444,29.37282986111111,0)" xlink:href="#aq"/><use transform="matrix(0.010850694444444444,0,0,0.010850694444444444,41.85112847222222,0)" xlink:href="#ap"/><use transform="matrix(0.010850694444444444,0,0,0.010850694444444444,47.233072916666664,0)" xlink:href="#ap"/><use transform="matrix(0.010850694444444444,0,0,0.010850694444444444,52.61501736111111,0)" xlink:href="#as"/><use transform="matrix(0.010850694444444444,0,0,0.010850694444444444,65.57074652777777,0)" xlink:href="#ay"/><use transform="matrix(0.010850694444444444,0,0,0.010850694444444444,78.70008680555554,0)" xlink:href="#aA"/><use transform="matrix(0.010850694444444444,0,0,0.010850694444444444,92.32855902777777,0)" xlink:href="#as"/></g><g id="W"><use transform="matrix(0.010850694444444444,0,0,0.010850694444444444,0,0)" xlink:href="#aJ"/><use transform="matrix(0.010850694444444444,0,0,0.010850694444444444,13.172743055555552,0)" xlink:href="#ar"/></g><g id="Y"><use transform="matrix(0.010850694444444444,0,0,0.010850694444444444,0,0)" xlink:href="#aV"/><use transform="matrix(0.010850694444444444,0,0,0.010850694444444444,20.07378472222222,0)" xlink:href="#aq"/><use transform="matrix(0.010850694444444444,0,0,0.010850694444444444,32.55208333333333,0)" xlink:href="#ay"/><use transform="matrix(0.010850694444444444,0,0,0.010850694444444444,45.68142361111111,0)" xlink:href="#aq"/><use transform="matrix(0.010850694444444444,0,0,0.010850694444444444,58.15972222222221,0)" xlink:href="#aA"/><use transform="matrix(0.010850694444444444,0,0,0.010850694444444444,71.78819444444443,0)" xlink:href="#as"/></g><g id="Z"><use transform="matrix(0.010850694444444444,0,0,0.010850694444444444,0,0)" xlink:href="#aZ"/><use transform="matrix(0.010850694444444444,0,0,0.010850694444444444,14.539930555555555,0)" xlink:href="#aq"/><use transform="matrix(0.010850694444444444,0,0,0.010850694444444444,27.018229166666664,0)" xlink:href="#av"/><use transform="matrix(0.010850694444444444,0,0,0.010850694444444444,40.625,0)" xlink:href="#aA"/><use transform="matrix(0.010850694444444444,0,0,0.010850694444444444,54.25347222222222,0)" xlink:href="#as"/><use transform="matrix(0.010850694444444444,0,0,0.010850694444444444,67.20920138888889,0)" xlink:href="#aB"/></g><path fill="#333" d="M128 0v-1118h300V0H128zm150-1264c-91 0-165-68-165-154 0-85 74-154 165-154 90 0 165 69 165 154 0 86-75 154-165 154" id="bi"/><path fill="#333" d="M628 22C291 22 81-210 81-554c0-346 210-578 547-578 265 0 455 142 497 372l-279 52c-25-116-99-188-215-188-160 0-244 139-244 341 0 200 84 341 244 341 116 0 193-74 217-195l279 51C1085-123 896 22 628 22" id="bj"/><path fill="#333" d="M428-1490V0H128v-1490h300" id="bk"/><path fill="#333" d="M513 14c-232 0-385-159-385-421v-711h300v659c0 139 76 222 202 222 127 0 217-86 217-234v-647h301V0H864l-4-232C797-74 683 14 513 14" id="bl"/><g id="aa"><use transform="matrix(0.008680555555555556,0,0,0.008680555555555556,0,0)" xlink:href="#bb"/><use transform="matrix(0.008680555555555556,0,0,0.008680555555555556,12.065972222222223,0)" xlink:href="#bb"/><use transform="matrix(0.008680555555555556,0,0,0.008680555555555556,24.131944444444446,0)" xlink:href="#bi"/><use transform="matrix(0.008680555555555556,0,0,0.008680555555555556,28.94965277777778,0)" xlink:href="#bf"/><use transform="matrix(0.008680555555555556,0,0,0.008680555555555556,40.017361111111114,0)" xlink:href="#bj"/><use transform="matrix(0.008680555555555556,0,0,0.008680555555555556,50.47743055555556,0)" xlink:href="#bk"/><use transform="matrix(0.008680555555555556,0,0,0.008680555555555556,55.29513888888889,0)" xlink:href="#bl"/><use transform="matrix(0.008680555555555556,0,0,0.008680555555555556,66.36284722222223,0)" xlink:href="#bg"/><use transform="matrix(0.008680555555555556,0,0,0.008680555555555556,77.56944444444446,0)" xlink:href="#bc"/><use transform="matrix(0.008680555555555556,0,0,0.008680555555555556,88.15972222222223,0)" xlink:href="#bh"/><use transform="matrix(0.008680555555555556,0,0,0.008680555555555556,100.22569444444447,0)" xlink:href="#bh"/></g><g id="ab"><use transform="matrix(0.010850694444444444,0,0,0.010850694444444444,0,0)" xlink:href="#aE"/><use transform="matrix(0.010850694444444444,0,0,0.010850694444444444,12.565104166666666,0)" xlink:href="#aF"/><use transform="matrix(0.010850694444444444,0,0,0.010850694444444444,25.889756944444443,0)" xlink:href="#aJ"/><use transform="matrix(0.010850694444444444,0,0,0.010850694444444444,39.49652777777777,0)" xlink:href="#aJ"/><use transform="matrix(0.010850694444444444,0,0,0.010850694444444444,52.66927083333333,0)" xlink:href="#ar"/></g></defs></g></svg>